<svg id="lava"
  xmlns="http://www.w3.org/2000/svg"
  xmlns:xlink="http://www.w3.org/1999/xlink" viewBox="0 0 600 600">
  <defs>
    <filter id="goo" color-interpolation-filters="sRGB">
      <feGaussianBlur in="SourceGraphic" stdDeviation="8" result="blur" />
      <feColorMatrix in="blur" mode="matrix" values="1 0 0 0 0  0 1 0 0 0  0 0 1 0 0  0 0 0 21 -9" result="cm" />
      <feBlend/>

    </filter>

    <clipPath id="glassMask">
      <path id="glassShape" d="M262,174h60l33.5,182.3c0,0,2.7,12.8,2.5,22.8c-7.5,0-131,0-131,0s-0.7-9.3,0-18
	C227.6,352.9,262,174,262,174z"/>
    </clipPath>
    <!-- <radialGradient id="bgGrad" cx="300" cy="300" r="200" gradientUnits="userSpaceOnUse">
      <stop offset="7.142857e-002" style="stop-color:#5FE06F30"/>
      <stop offset="0.3107" style="stop-color:#5FE06F20"/>
      <stop offset="0.553" style="stop-color:#5FE06F10"/>
      <stop offset="0.7828" style="stop-color:#5FE06F05"/>
      <stop offset="0.9847" style="stop-color:#5FE06F00"/>
    </radialGradient> -->

    <radialGradient id="blob3Grad" cx="291.9382" cy="167.4587" r="41.0767" gradientUnits="userSpaceOnUse">
      <stop offset="1.020408e-002" style="stop-color:#2FA04F"/>
      <stop offset="0.1922" style="stop-color:#4FC05F66"/>
      <stop offset="0.3992" style="stop-color:#5FE06F88"/>
      <stop offset="0.6186" style="stop-color:#5FE06Faa"/>
      <stop offset="0.8449" style="stop-color:#5FE06Fcc"/>
      <stop offset="1" style="stop-color:#5FE06F"/>
    </radialGradient>
    <radialGradient id="botBlob" cx="284.5" cy="421.5" r="23.521" gradientTransform="matrix(-2.802637e-002 -0.9996 5.9976 -0.1682 -2235.533 776.7669)" gradientUnits="userSpaceOnUse">
      <stop offset="1.020408e-002" style="stop-color:#2FA04F"/>
      <stop offset="0.1922" style="stop-color:#4FC05F"/>
      <stop offset="0.3992" style="stop-color:#5FE06F"/>
      <stop offset="0.6186" style="stop-color:#5FE06F"/>
      <stop offset="0.8449" style="stop-color:#5FE06F"/>
      <stop offset="1" style="stop-color:#5FE06F"/>
    </radialGradient>
    <radialGradient id="blob2_2_" cx="294" cy="157" r="23" gradientUnits="userSpaceOnUse">
      <stop offset="1.020408e-002" style="stop-color:#2FA04F"/>
      <stop offset="0.1922" style="stop-color:#4FC05F"/>
      <stop offset="0.3992" style="stop-color:#5FE06F"/>
      <stop offset="0.6186" style="stop-color:#5FE06F"/>
      <stop offset="0.8449" style="stop-color:#5FE06F"/>
      <stop offset="1" style="stop-color:#5FE06F"/>
    </radialGradient>
    <radialGradient id="blob1_2_" cx="297" cy="167.5" r="27.2156" gradientUnits="userSpaceOnUse">
      <stop offset="1.020408e-002" style="stop-color:#2FA04F"/>
      <stop offset="0.1922" style="stop-color:#4FC05F"/>
      <stop offset="0.3992" style="stop-color:#5FE06F"/>
      <stop offset="0.6186" style="stop-color:#5FE06F"/>
      <stop offset="0.8449" style="stop-color:#5FE06F"/>
      <stop offset="1" style="stop-color:#5FE06F"/>
    </radialGradient>
    <radialGradient id="blob0_2_" cx="292" cy="171.5" r="26.5354" gradientUnits="userSpaceOnUse">
      <stop offset="1.020408e-002" style="stop-color:#2FA04F"/>
      <stop offset="0.1922" style="stop-color:#4FC05F"/>
      <stop offset="0.3992" style="stop-color:#5FE06F"/>
      <stop offset="0.6186" style="stop-color:#5FE06F"/>
      <stop offset="0.8449" style="stop-color:#5FE06F"/>
      <stop offset="1" style="stop-color:#5FE06F"/>
    </radialGradient>
    <radialGradient id="blob4_2_" cx="306.5" cy="155" r="14.109" gradientUnits="userSpaceOnUse">
      <stop offset="1.020408e-002" style="stop-color:#2FA04F"/>
      <stop offset="0.1922" style="stop-color:#4FC05F"/>
      <stop offset="0.3992" style="stop-color:#5FE06F"/>
      <stop offset="0.6186" style="stop-color:#6FF07F"/>
      <stop offset="0.8449" style="stop-color:#5FE06F"/>
      <stop offset="1" style="stop-color:#5FE06F"/>
    </radialGradient>

  </defs>
  <!-- <rect fill="url(#bgGrad)" width="600" height="600"/> -->

  <!-- <use xlink:href="#glassShape" fill="#EB7619" opacity="0.1"/> -->

  <g class="blobGroup" filter="url(#goo)" clip-path="url(#glassMask)">
    <path class="blob0 blob" fill="url(#blob0_2_)" d="M326.2,149.5c-5,19.2-21.4,29.2-37.8,26.6c-16.5-2.9-33.4-12.9-37.1-26.6
	c-3.8-13.6,12.5-32.1,37.8-34.9C314.4,111.8,331.3,130.4,326.2,149.5z"/>
    <path class="blob1 blob" fill="url(#blob1_2_)" d="M320.5,146.4c-4.4,10.1-16.4,20.2-26.8,25.3c-10.4,5.2-22.4-2.9-26.8-15.2
	c-4.4-11.6,7.6-20.4,26.8-25.3C312.9,126.3,324.9,135.6,320.5,146.4z"/>
    <path class="blob2 blob" fill="url(#blob2_2_)" d="M278,147.7c2.7-7.1,9.4-15.7,15.4-16.4c5.9-0.4,12.6,8.5,15.4,16.9
	c2.7,8.4-4.2,14.9-15.4,14.2C282.2,161.5,275.3,154.8,278,147.7z"/>
    <path class="botBlob" fill="url(#botBlob)" d="M354,381.2c6.8,3.4,5.4,7.4-5.6,10.4c-10.7,3.1-31.1,5.1-54.4,8.4
	c-23.3,3.3-43.7,0.8-54.4-2.4c-11-3.4-12.4-7.6-5.6-13.8c6.8-7,18.9-14.6,29.6-17.4c11-3.3,20.6-1.8,30.4-1.4
	c9.8,0.4,19.4,5.1,30.4,8.3C335.1,376.8,347.2,378.6,354,381.2z"/>

    <path class="blob3 blob" fill="url(#blob3Grad)" d="M312.7,147.3c-2.1,16.4-15.3,27.2-23.2,25.3c-8.1-1.8-12.6-13-14.8-24.9
	c-1.9-11.8,2.7-22.7,14.8-25.3C301.5,119.6,314.7,130.8,312.7,147.3z" />
    <path class="blob4 blob" fill="url(#blob4_2_)" d="M317.8,147.4c-1,8.2-9.8,10.3-13.8,9.3c-4-0.9-6.5-3-7.6-8.9c-1-5.9,2.3-8.5,8.4-9.8
	C310.8,136.6,318.8,139.1,317.8,147.4z"/>
  </g>

  <!-- <polygon id="lampTop" fill="url(#lampTop_2_)" points="269,135 262,174 322,174 316,135 "/>  
<path id="lampBot" fill="url(#lampBot_2_)" d="M226.8,379.5c2.6,42.8,23.9,54.2,28.3,59.8c3.3,5.4-10,30.8-10,30.8h95.5
	c0,0-16.5-25-14.5-30.8s26-15.6,32-60.1C328,379.1,240.3,379.5,226.8,379.5z"/> 
<rect y="470" width="600" height="130"/> -->

</svg>
